<svg xmlns="http://www.w3.org/2000/svg" viewBox="0 0 1024 1024">
  <defs>
    <linearGradient id="c4-bg" x1="0" y1="0" x2="1" y2="1">
      <stop offset="0" stop-color="#FF8A3C"/>
      <stop offset="1" stop-color="#E23A6E"/>
    </linearGradient>
    <linearGradient id="c4-cone" x1="0" y1="0" x2="0" y2="1">
      <stop offset="0" stop-color="#FFF3D6"/>
      <stop offset="1" stop-color="#EED9A0"/>
    </linearGradient>
    <linearGradient id="c4-sheen" x1="0" y1="0" x2="0" y2="1">
      <stop offset="0" stop-color="#FFFFFF" stop-opacity="0.22"/>
      <stop offset="0.55" stop-color="#FFFFFF" stop-opacity="0"/>
    </linearGradient>
    <path id="c4-spark" d="M0 -34 C4 -12 12 -4 34 0 C12 4 4 12 0 34 C-4 12 -12 4 -34 0 C-12 -4 -4 -12 0 -34 Z"/>
    <filter id="c4-shadow" x="-20%" y="-20%" width="140%" height="140%">
      <feDropShadow dx="0" dy="14" stdDeviation="18" flood-color="#000000" flood-opacity="0.35"/>
    </filter>
  </defs>
  <g filter="url(#c4-shadow)">
    <rect x="100" y="100" width="824" height="824" rx="186" fill="url(#c4-bg)"/>
    <rect x="100" y="100" width="824" height="824" rx="186" fill="url(#c4-sheen)"/>
    <use href="#c4-spark" transform="translate(262 284) scale(0.75)" fill="#FFF3D6" opacity="0.85"/>
    <use href="#c4-spark" transform="translate(800 762) scale(0.6)" fill="#FFF3D6" opacity="0.7"/>
    <g transform="rotate(-14 512 512)">
      <rect x="250" y="478" width="62" height="68" rx="24" fill="#EFCF96"/>
      <rect x="430" y="590" width="124" height="128" rx="46" fill="none" stroke="#EFCF96" stroke-width="32"/>
      <path d="M320 447 C300 452 300 572 320 577 L640 656 C668 663 668 361 640 368 Z" fill="url(#c4-cone)"/>
      <ellipse cx="648" cy="512" rx="26" ry="150" fill="#FBE6BD"/>
      <ellipse cx="648" cy="512" rx="13" ry="118" fill="#A13B54"/>
      <path d="M745 458 A70 70 0 0 1 745 566" fill="none" stroke="#FFF3D6" stroke-width="28" stroke-linecap="round"/>
      <path d="M777 420 A120 120 0 0 1 777 604" fill="none" stroke="#FFF3D6" stroke-width="24" stroke-linecap="round" opacity="0.7"/>
      <path d="M809 382 A170 170 0 0 1 809 642" fill="none" stroke="#FFF3D6" stroke-width="20" stroke-linecap="round" opacity="0.45"/>
      <g transform="translate(688 282) rotate(12)">
        <circle cx="0" cy="0" r="20" fill="#FFF3D6"/>
        <rect x="16" y="-84" width="11" height="88" rx="5" fill="#FFF3D6"/>
        <path d="M27 -84 C54 -74 56 -50 40 -36 C48 -55 40 -66 27 -70 Z" fill="#FFF3D6"/>
      </g>
    </g>
  </g>
</svg>
