<svg xmlns="http://www.w3.org/2000/svg" viewBox="0 0 1024 1024">
  <defs>
    <linearGradient id="c3-bg" x1="0" y1="0" x2="0" y2="1">
      <stop offset="0" stop-color="#4FA8F6"/>
      <stop offset="1" stop-color="#2653DA"/>
    </linearGradient>
    <linearGradient id="c3-sheen" x1="0" y1="0" x2="0" y2="1">
      <stop offset="0" stop-color="#FFFFFF" stop-opacity="0.22"/>
      <stop offset="0.55" stop-color="#FFFFFF" stop-opacity="0"/>
    </linearGradient>
    <path id="c3-spark" d="M0 -34 C4 -12 12 -4 34 0 C12 4 4 12 0 34 C-4 12 -12 4 -34 0 C-12 -4 -4 -12 0 -34 Z"/>
    <clipPath id="c3-mouth">
      <rect x="464" y="556" width="96" height="86" rx="42"/>
    </clipPath>
    <filter id="c3-shadow" x="-20%" y="-20%" width="140%" height="140%">
      <feDropShadow dx="0" dy="14" stdDeviation="18" flood-color="#000000" flood-opacity="0.35"/>
    </filter>
  </defs>
  <g filter="url(#c3-shadow)">
    <rect x="100" y="100" width="824" height="824" rx="186" fill="url(#c3-bg)"/>
    <rect x="100" y="100" width="824" height="824" rx="186" fill="url(#c3-sheen)"/>
    <path d="M810 503 A70 70 0 0 1 810 617" fill="none" stroke="#FFF6E4" stroke-width="26" stroke-linecap="round" opacity="0.95"/>
    <path d="M838 463 A118 118 0 0 1 838 657" fill="none" stroke="#FFF6E4" stroke-width="22" stroke-linecap="round" opacity="0.55"/>
    <path d="M214 503 A70 70 0 0 0 214 617" fill="none" stroke="#FFF6E4" stroke-width="26" stroke-linecap="round" opacity="0.95"/>
    <path d="M186 463 A118 118 0 0 0 186 657" fill="none" stroke="#FFF6E4" stroke-width="22" stroke-linecap="round" opacity="0.55"/>
    <use href="#c3-spark" transform="translate(640 236) scale(0.5)" fill="#FFFFFF" opacity="0.9"/>
    <g transform="rotate(-3 512 540)">
      <rect x="222" y="492" width="50" height="116" rx="25" fill="#E9D9BE"/>
      <rect x="752" y="492" width="50" height="116" rx="25" fill="#E9D9BE"/>
      <line x1="512" y1="352" x2="512" y2="286" stroke="#FFF6E4" stroke-width="24" stroke-linecap="round"/>
      <circle cx="512" cy="258" r="52" fill="#FFD166" opacity="0.32"/>
      <circle cx="512" cy="258" r="30" fill="#FFD166"/>
      <rect x="270" y="350" width="484" height="388" rx="112" fill="#FFF6E4"/>
      <circle cx="424" cy="502" r="38" fill="#10243E"/>
      <circle cx="600" cy="502" r="38" fill="#10243E"/>
      <circle cx="410" cy="488" r="12" fill="#FFFFFF"/>
      <circle cx="586" cy="488" r="12" fill="#FFFFFF"/>
      <circle cx="368" cy="574" r="24" fill="#FF9DA1" opacity="0.65"/>
      <circle cx="656" cy="574" r="24" fill="#FF9DA1" opacity="0.65"/>
      <rect x="464" y="556" width="96" height="86" rx="42" fill="#10243E"/>
      <circle cx="512" cy="648" r="30" fill="#FF7B87" clip-path="url(#c3-mouth)"/>
    </g>
  </g>
</svg>
