<svg xmlns="http://www.w3.org/2000/svg" viewBox="0 0 1024 1024">
  <defs>
    <linearGradient id="c1-bg" x1="0" y1="0" x2="0" y2="1">
      <stop offset="0" stop-color="#23C4AE"/>
      <stop offset="1" stop-color="#0B5E60"/>
    </linearGradient>
    <linearGradient id="c1-leather" x1="0" y1="0" x2="0" y2="1">
      <stop offset="0" stop-color="#E9A852"/>
      <stop offset="1" stop-color="#BC7127"/>
    </linearGradient>
    <linearGradient id="c1-sheen" x1="0" y1="0" x2="0" y2="1">
      <stop offset="0" stop-color="#FFFFFF" stop-opacity="0.22"/>
      <stop offset="0.55" stop-color="#FFFFFF" stop-opacity="0"/>
    </linearGradient>
    <path id="c1-spark" d="M0 -34 C4 -12 12 -4 34 0 C12 4 4 12 0 34 C-4 12 -12 4 -34 0 C-12 -4 -4 -12 0 -34 Z"/>
    <filter id="c1-shadow" x="-20%" y="-20%" width="140%" height="140%">
      <feDropShadow dx="0" dy="14" stdDeviation="18" flood-color="#000000" flood-opacity="0.35"/>
    </filter>
  </defs>
  <g filter="url(#c1-shadow)">
    <rect x="100" y="100" width="824" height="824" rx="186" fill="url(#c1-bg)"/>
    <rect x="100" y="100" width="824" height="824" rx="186" fill="url(#c1-sheen)"/>
    <use href="#c1-spark" transform="translate(772 292)" fill="#EAFFF9" opacity="0.9"/>
    <use href="#c1-spark" transform="translate(838 372) scale(0.55)" fill="#EAFFF9" opacity="0.7"/>
    <use href="#c1-spark" transform="translate(252 332) scale(0.7)" fill="#EAFFF9" opacity="0.75"/>
    <g transform="rotate(-4 512 516)">
      <rect x="427" y="336" width="170" height="140" rx="66" fill="none" stroke="#8A5117" stroke-width="38"/>
      <rect x="252" y="424" width="520" height="336" rx="62" fill="url(#c1-leather)"/>
      <rect x="284" y="456" width="456" height="272" rx="46" fill="none" stroke="#FFF6E6" stroke-width="7" stroke-dasharray="1 20" stroke-linecap="round" opacity="0.45"/>
      <rect x="340" y="402" width="64" height="48" rx="14" fill="#FFD98A" stroke="#8A5117" stroke-width="10"/>
      <rect x="620" y="402" width="64" height="48" rx="14" fill="#FFD98A" stroke="#8A5117" stroke-width="10"/>
      <rect x="341" y="557" width="30" height="70" rx="15" fill="#FFF6E6"/>
      <rect x="393" y="532" width="30" height="120" rx="15" fill="#FFF6E6"/>
      <rect x="445" y="497" width="30" height="190" rx="15" fill="#FFF6E6"/>
      <rect x="497" y="467" width="30" height="250" rx="15" fill="#FFF6E6"/>
      <rect x="549" y="497" width="30" height="190" rx="15" fill="#FFF6E6"/>
      <rect x="601" y="532" width="30" height="120" rx="15" fill="#FFF6E6"/>
      <rect x="653" y="557" width="30" height="70" rx="15" fill="#FFF6E6"/>
    </g>
  </g>
</svg>
