<svg xmlns="http://www.w3.org/2000/svg" viewBox="0 0 1024 1024">
  <defs>
    <linearGradient id="c2-bg" x1="0" y1="0" x2="1" y2="1">
      <stop offset="0" stop-color="#7C3AED"/>
      <stop offset="1" stop-color="#EC4899"/>
    </linearGradient>
    <linearGradient id="c2-bars" gradientUnits="userSpaceOnUse" x1="337" y1="0" x2="687" y2="0">
      <stop offset="0" stop-color="#7C3AED"/>
      <stop offset="1" stop-color="#EC4899"/>
    </linearGradient>
    <linearGradient id="c2-sheen" x1="0" y1="0" x2="0" y2="1">
      <stop offset="0" stop-color="#FFFFFF" stop-opacity="0.22"/>
      <stop offset="0.55" stop-color="#FFFFFF" stop-opacity="0"/>
    </linearGradient>
    <path id="c2-spark" d="M0 -34 C4 -12 12 -4 34 0 C12 4 4 12 0 34 C-4 12 -12 4 -34 0 C-12 -4 -4 -12 0 -34 Z"/>
    <filter id="c2-shadow" x="-20%" y="-20%" width="140%" height="140%">
      <feDropShadow dx="0" dy="14" stdDeviation="18" flood-color="#000000" flood-opacity="0.35"/>
    </filter>
  </defs>
  <g filter="url(#c2-shadow)">
    <rect x="100" y="100" width="824" height="824" rx="186" fill="url(#c2-bg)"/>
    <rect x="100" y="100" width="824" height="824" rx="186" fill="url(#c2-sheen)"/>
    <use href="#c2-spark" transform="translate(788 246)" fill="#FFFFFF" opacity="0.95"/>
    <use href="#c2-spark" transform="translate(846 330) scale(0.5)" fill="#FFFFFF" opacity="0.8"/>
    <use href="#c2-spark" transform="translate(812 748) scale(0.65)" fill="#FFFFFF" opacity="0.8"/>
    <g transform="rotate(2 512 512)">
      <rect x="238" y="296" width="548" height="372" rx="104" fill="#FFFFFF"/>
      <path d="M368 640 C362 722 330 768 282 802 C368 786 432 742 462 664 Z" fill="#FFFFFF"/>
      <rect x="337" y="427" width="46" height="110" rx="23" fill="url(#c2-bars)"/>
      <rect x="413" y="382" width="46" height="200" rx="23" fill="url(#c2-bars)"/>
      <rect x="489" y="341" width="46" height="282" rx="23" fill="url(#c2-bars)"/>
      <rect x="565" y="382" width="46" height="200" rx="23" fill="url(#c2-bars)"/>
      <rect x="641" y="427" width="46" height="110" rx="23" fill="url(#c2-bars)"/>
    </g>
  </g>
</svg>
