<svg xmlns="http://www.w3.org/2000/svg" viewBox="0 0 1024 1024">
  <defs>
    <linearGradient id="d5-bg" x1="0" y1="0" x2="0" y2="1">
      <stop offset="0" stop-color="#8E4EC6"/>
      <stop offset="1" stop-color="#3B1E63"/>
    </linearGradient>
    <linearGradient id="d5-sheen" x1="0" y1="0" x2="0" y2="1">
      <stop offset="0" stop-color="#FFFFFF" stop-opacity="0.22"/>
      <stop offset="0.55" stop-color="#FFFFFF" stop-opacity="0"/>
    </linearGradient>
    <path id="d5-spark" d="M0 -34 C4 -12 12 -4 34 0 C12 4 4 12 0 34 C-4 12 -12 4 -34 0 C-12 -4 -4 -12 0 -34 Z"/>
    <clipPath id="d5-crown">
      <rect x="392" y="170" width="240" height="170" rx="28"/>
    </clipPath>
    <filter id="d5-shadow" x="-20%" y="-20%" width="140%" height="140%">
      <feDropShadow dx="0" dy="14" stdDeviation="18" flood-color="#000000" flood-opacity="0.4"/>
    </filter>
  </defs>
  <g filter="url(#d5-shadow)">
    <rect x="100" y="100" width="824" height="824" rx="186" fill="url(#d5-bg)"/>
    <rect x="100" y="100" width="824" height="824" rx="186" fill="url(#d5-sheen)"/>
    <use href="#d5-spark" transform="translate(784 244) scale(0.8)" fill="#FFFFFF" opacity="0.9"/>
    <use href="#d5-spark" transform="translate(232 724) scale(0.6)" fill="#FFFFFF" opacity="0.75"/>
    <use href="#d5-spark" transform="translate(818 318) scale(0.45)" fill="#FFFFFF" opacity="0.6"/>
    <g transform="rotate(-2 512 520)">
      <line x1="512" y1="168" x2="512" y2="148" stroke="#FFF3DF" stroke-width="16" stroke-linecap="round"/>
      <circle cx="512" cy="132" r="26" fill="#F5C863" opacity="0.3"/>
      <circle cx="512" cy="132" r="15" fill="#F5C863"/>
      <rect x="480" y="612" width="64" height="30" fill="#FFF3DF"/>
      <rect x="352" y="356" width="320" height="270" rx="95" fill="#FFF3DF"/>
      <path d="M414 428 Q446 412 478 428" fill="none" stroke="#10243E" stroke-width="13" stroke-linecap="round"/>
      <path d="M556 408 Q590 392 624 408" fill="none" stroke="#10243E" stroke-width="13" stroke-linecap="round"/>
      <circle cx="446" cy="472" r="28" fill="#10243E"/>
      <circle cx="436" cy="462" r="8" fill="#FFFFFF"/>
      <circle cx="590" cy="472" r="44" fill="#FFFFFF" opacity="0.14"/>
      <circle cx="590" cy="472" r="44" fill="none" stroke="#F5C863" stroke-width="10"/>
      <circle cx="590" cy="472" r="24" fill="#10243E"/>
      <circle cx="582" cy="462" r="8" fill="#FFFFFF"/>
      <path d="M626 508 C652 560 644 598 620 622" fill="none" stroke="#F5C863" stroke-width="7"/>
      <circle cx="400" cy="540" r="22" fill="#FF9DA1" opacity="0.62"/>
      <circle cx="622" cy="540" r="22" fill="#FF9DA1" opacity="0.62"/>
      <path d="M470 546 Q492 530 512 546 Q532 530 554 546" fill="none" stroke="#23172E" stroke-width="13" stroke-linecap="round"/>
      <path d="M484 570 Q512 588 540 572" fill="none" stroke="#10243E" stroke-width="14" stroke-linecap="round"/>
      <rect x="392" y="170" width="240" height="170" rx="28" fill="#23172E"/>
      <rect x="392" y="296" width="240" height="36" fill="#C9364C" clip-path="url(#d5-crown)"/>
      <rect x="342" y="328" width="340" height="36" rx="18" fill="#23172E"/>
      <rect x="322" y="636" width="380" height="180" rx="56" fill="#23172E"/>
      <path d="M474 636 L550 636 L512 696 Z" fill="#FFF3DF"/>
      <path d="M506 662 L462 638 L462 688 Z" fill="#C9364C"/>
      <path d="M518 662 L562 638 L562 688 Z" fill="#C9364C"/>
      <circle cx="512" cy="663" r="11" fill="#A82A3F"/>
      <circle cx="512" cy="724" r="8" fill="#F5C863"/>
      <circle cx="512" cy="756" r="8" fill="#F5C863"/>
      <g transform="translate(302 706) rotate(-12)">
        <rect x="-92" y="-62" width="184" height="124" rx="14" fill="#FFF3DF"/>
        <path d="M-92 -62 L0 10 L92 -62" fill="none" stroke="#D9C6A8" stroke-width="8"/>
        <circle cx="0" cy="16" r="20" fill="#C9364C"/>
        <use href="#d5-spark" transform="translate(0 16) scale(0.3)" fill="#8C1F33"/>
      </g>
      <path d="M368 690 C352 716 350 736 362 752" fill="none" stroke="#23172E" stroke-width="38" stroke-linecap="round"/>
      <circle cx="372" cy="756" r="20" fill="#FFF3DF"/>
    </g>
  </g>
</svg>
