<svg xmlns="http://www.w3.org/2000/svg" viewBox="0 0 1024 1024">
  <defs>
    <linearGradient id="v2-bg" x1="0" y1="0" x2="0" y2="1">
      <stop offset="0" stop-color="#31C48D"/>
      <stop offset="1" stop-color="#0B6B4F"/>
    </linearGradient>
    <linearGradient id="v2-sheen" x1="0" y1="0" x2="0" y2="1">
      <stop offset="0" stop-color="#FFFFFF" stop-opacity="0.22"/>
      <stop offset="0.55" stop-color="#FFFFFF" stop-opacity="0"/>
    </linearGradient>
    <path id="v2-spark" d="M0 -34 C4 -12 12 -4 34 0 C12 4 4 12 0 34 C-4 12 -12 4 -34 0 C-12 -4 -4 -12 0 -34 Z"/>
    <filter id="v2-shadow" x="-20%" y="-20%" width="140%" height="140%">
      <feDropShadow dx="0" dy="14" stdDeviation="18" flood-color="#000000" flood-opacity="0.35"/>
    </filter>
  </defs>
  <g filter="url(#v2-shadow)">
    <rect x="100" y="100" width="824" height="824" rx="186" fill="url(#v2-bg)"/>
    <rect x="100" y="100" width="824" height="824" rx="186" fill="url(#v2-sheen)"/>
    <use href="#v2-spark" transform="translate(250 340) scale(0.7)" fill="#FFFFFF" opacity="0.8"/>
    <use href="#v2-spark" transform="translate(246 712) scale(0.55)" fill="#FFFFFF" opacity="0.7"/>
    <path d="M764 424 A70 70 0 0 1 806 466" fill="none" stroke="#FFF6E4" stroke-width="18" stroke-linecap="round" opacity="0.85"/>
    <path d="M778 387 A110 110 0 0 1 843 452" fill="none" stroke="#FFF6E4" stroke-width="14" stroke-linecap="round" opacity="0.5"/>
    <g transform="rotate(-2 512 540)">
      <line x1="512" y1="300" x2="512" y2="254" stroke="#FFF6E4" stroke-width="20" stroke-linecap="round"/>
      <circle cx="512" cy="240" r="40" fill="#FFD166" opacity="0.32"/>
      <circle cx="512" cy="240" r="22" fill="#FFD166"/>
      <path d="M388 618 C326 632 306 670 312 706" fill="none" stroke="#FFF6E4" stroke-width="46" stroke-linecap="round"/>
      <path d="M636 618 C702 598 732 546 740 494" fill="none" stroke="#FFF6E4" stroke-width="46" stroke-linecap="round"/>
      <circle cx="742" cy="488" r="28" fill="#FFF6E4"/>
      <rect x="478" y="544" width="68" height="40" fill="#FFF6E4"/>
      <rect x="430" y="752" width="52" height="62" rx="26" fill="#FFF6E4"/>
      <rect x="542" y="752" width="52" height="62" rx="26" fill="#FFF6E4"/>
      <rect x="382" y="570" width="260" height="190" rx="70" fill="#FFF6E4"/>
      <rect x="444" y="649" width="16" height="26" rx="8" fill="#10243E"/>
      <rect x="474" y="638" width="16" height="48" rx="8" fill="#10243E"/>
      <rect x="504" y="627" width="16" height="70" rx="8" fill="#10243E"/>
      <rect x="534" y="638" width="16" height="48" rx="8" fill="#10243E"/>
      <rect x="564" y="649" width="16" height="26" rx="8" fill="#10243E"/>
      <rect x="352" y="300" width="320" height="250" rx="90" fill="#FFF6E4"/>
      <circle cx="440" cy="408" r="28" fill="#10243E"/>
      <circle cx="584" cy="408" r="28" fill="#10243E"/>
      <circle cx="429" cy="397" r="9" fill="#FFFFFF"/>
      <circle cx="573" cy="397" r="9" fill="#FFFFFF"/>
      <circle cx="404" cy="462" r="16" fill="#FF9DA1" opacity="0.6"/>
      <circle cx="620" cy="462" r="16" fill="#FF9DA1" opacity="0.6"/>
      <path d="M468 468 Q512 500 556 468" fill="none" stroke="#10243E" stroke-width="18" stroke-linecap="round"/>
    </g>
  </g>
</svg>
