<svg xmlns="http://www.w3.org/2000/svg" viewBox="0 0 1024 1024">
  <defs>
    <linearGradient id="v5-bg" x1="0" y1="0" x2="0" y2="1">
      <stop offset="0" stop-color="#FFC53D"/>
      <stop offset="1" stop-color="#F0761A"/>
    </linearGradient>
    <linearGradient id="v5-sheen" x1="0" y1="0" x2="0" y2="1">
      <stop offset="0" stop-color="#FFFFFF" stop-opacity="0.22"/>
      <stop offset="0.55" stop-color="#FFFFFF" stop-opacity="0"/>
    </linearGradient>
    <path id="v5-spark" d="M0 -34 C4 -12 12 -4 34 0 C12 4 4 12 0 34 C-4 12 -12 4 -34 0 C-12 -4 -4 -12 0 -34 Z"/>
    <clipPath id="v5-squircle">
      <rect x="100" y="100" width="824" height="824" rx="186"/>
    </clipPath>
    <filter id="v5-shadow" x="-20%" y="-20%" width="140%" height="140%">
      <feDropShadow dx="0" dy="14" stdDeviation="18" flood-color="#000000" flood-opacity="0.35"/>
    </filter>
  </defs>
  <g filter="url(#v5-shadow)">
    <rect x="100" y="100" width="824" height="824" rx="186" fill="url(#v5-bg)"/>
    <rect x="100" y="100" width="824" height="824" rx="186" fill="url(#v5-sheen)"/>
    <use href="#v5-spark" transform="translate(238 318) scale(0.6)" fill="#FFFFFF" opacity="0.8"/>
    <use href="#v5-spark" transform="translate(760 238) scale(0.8)" fill="#FFFFFF" opacity="0.9"/>
    <g transform="rotate(-2 512 560)">
      <line x1="512" y1="462" x2="512" y2="410" stroke="#FFF6E4" stroke-width="22" stroke-linecap="round"/>
      <circle cx="512" cy="382" r="44" fill="#FFFFFF" opacity="0.25"/>
      <circle cx="512" cy="382" r="26" fill="#FF6B6B"/>
      <path d="M566 348 A64 64 0 0 1 566 416" fill="none" stroke="#FFF6E4" stroke-width="16" stroke-linecap="round" opacity="0.9"/>
      <path d="M458 348 A64 64 0 0 0 458 416" fill="none" stroke="#FFF6E4" stroke-width="16" stroke-linecap="round" opacity="0.9"/>
      <rect x="332" y="462" width="360" height="310" rx="110" fill="#FFF6E4"/>
      <circle cx="434" cy="592" r="42" fill="#22304F"/>
      <circle cx="590" cy="592" r="42" fill="#22304F"/>
      <circle cx="419" cy="576" r="13" fill="#FFFFFF"/>
      <circle cx="575" cy="576" r="13" fill="#FFFFFF"/>
    </g>
    <rect x="100" y="656" width="824" height="268" fill="#22304F" clip-path="url(#v5-squircle)"/>
    <rect x="100" y="656" width="824" height="16" fill="#FFFFFF" opacity="0.12" clip-path="url(#v5-squircle)"/>
    <rect x="318" y="628" width="36" height="66" rx="18" fill="#FFF6E4"/>
    <rect x="362" y="628" width="36" height="66" rx="18" fill="#FFF6E4"/>
    <rect x="626" y="628" width="36" height="66" rx="18" fill="#FFF6E4"/>
    <rect x="670" y="628" width="36" height="66" rx="18" fill="#FFF6E4"/>
  </g>
</svg>
