<svg xmlns="http://www.w3.org/2000/svg" viewBox="0 0 1024 1024">
  <defs>
    <linearGradient id="v3-bg" x1="0" y1="0" x2="1" y2="1">
      <stop offset="0" stop-color="#454BB8"/>
      <stop offset="1" stop-color="#1B1E4C"/>
    </linearGradient>
    <linearGradient id="v3-sheen" x1="0" y1="0" x2="0" y2="1">
      <stop offset="0" stop-color="#FFFFFF" stop-opacity="0.2"/>
      <stop offset="0.55" stop-color="#FFFFFF" stop-opacity="0"/>
    </linearGradient>
    <path id="v3-spark" d="M0 -34 C4 -12 12 -4 34 0 C12 4 4 12 0 34 C-4 12 -12 4 -34 0 C-12 -4 -4 -12 0 -34 Z"/>
    <clipPath id="v3-crown">
      <rect x="372" y="310" width="280" height="132" rx="54"/>
    </clipPath>
    <filter id="v3-shadow" x="-20%" y="-20%" width="140%" height="140%">
      <feDropShadow dx="0" dy="14" stdDeviation="18" flood-color="#000000" flood-opacity="0.4"/>
    </filter>
  </defs>
  <g filter="url(#v3-shadow)">
    <rect x="100" y="100" width="824" height="824" rx="186" fill="url(#v3-bg)"/>
    <rect x="100" y="100" width="824" height="824" rx="186" fill="url(#v3-sheen)"/>
    <use href="#v3-spark" transform="translate(782 262) scale(0.8)" fill="#FFFFFF" opacity="0.9"/>
    <use href="#v3-spark" transform="translate(232 738) scale(0.6)" fill="#FFFFFF" opacity="0.75"/>
    <g transform="rotate(-3 512 560)">
      <rect x="332" y="420" width="360" height="300" rx="130" fill="#FFF0DC"/>
      <path d="M478 648 Q512 670 546 652" fill="none" stroke="#10131F" stroke-width="16" stroke-linecap="round"/>
      <rect x="330" y="532" width="46" height="16" fill="#10131F"/>
      <rect x="648" y="532" width="46" height="16" fill="#10131F"/>
      <rect x="486" y="528" width="52" height="18" rx="9" fill="#10131F"/>
      <circle cx="432" cy="540" r="58" fill="#141830"/>
      <circle cx="592" cy="540" r="58" fill="#141830"/>
      <circle cx="414" cy="520" r="14" fill="#FFFFFF" opacity="0.75"/>
      <circle cx="574" cy="520" r="14" fill="#FFFFFF" opacity="0.75"/>
      <path d="M640 588 C672 630 668 668 650 696" fill="none" stroke="#10131F" stroke-width="10"/>
      <ellipse cx="512" cy="430" rx="250" ry="48" fill="#8A5A2B"/>
      <rect x="372" y="310" width="280" height="132" rx="54" fill="#8A5A2B"/>
      <rect x="372" y="392" width="280" height="38" fill="#5C3A18" clip-path="url(#v3-crown)"/>
      <rect x="282" y="690" width="460" height="172" rx="60" fill="#C9A15C"/>
      <path d="M472 690 L552 690 L512 758 Z" fill="#FFF0DC"/>
      <path d="M392 690 L512 690 L448 794 Z" fill="#A8813F"/>
      <path d="M632 690 L512 690 L576 794 Z" fill="#A8813F"/>
      <rect x="408" y="716" width="10" height="26" rx="5" fill="#FFF0DC"/>
      <rect x="426" y="708" width="10" height="42" rx="5" fill="#FFF0DC"/>
      <rect x="444" y="716" width="10" height="26" rx="5" fill="#FFF0DC"/>
    </g>
  </g>
</svg>
