<svg xmlns="http://www.w3.org/2000/svg" viewBox="0 0 1024 1024">
  <defs>
    <linearGradient id="v1-bg" x1="0" y1="0" x2="0" y2="1">
      <stop offset="0" stop-color="#4FA8F6"/>
      <stop offset="1" stop-color="#2653DA"/>
    </linearGradient>
    <linearGradient id="v1-sheen" x1="0" y1="0" x2="0" y2="1">
      <stop offset="0" stop-color="#FFFFFF" stop-opacity="0.22"/>
      <stop offset="0.55" stop-color="#FFFFFF" stop-opacity="0"/>
    </linearGradient>
    <path id="v1-spark" d="M0 -34 C4 -12 12 -4 34 0 C12 4 4 12 0 34 C-4 12 -12 4 -34 0 C-12 -4 -4 -12 0 -34 Z"/>
    <clipPath id="v1-mouth">
      <rect x="466" y="548" width="92" height="84" rx="40"/>
    </clipPath>
    <filter id="v1-shadow" x="-20%" y="-20%" width="140%" height="140%">
      <feDropShadow dx="0" dy="14" stdDeviation="18" flood-color="#000000" flood-opacity="0.35"/>
    </filter>
  </defs>
  <g filter="url(#v1-shadow)">
    <rect x="100" y="100" width="824" height="824" rx="186" fill="url(#v1-bg)"/>
    <rect x="100" y="100" width="824" height="824" rx="186" fill="url(#v1-sheen)"/>
    <use href="#v1-spark" transform="translate(232 306) scale(0.6)" fill="#FFFFFF" opacity="0.8"/>
    <use href="#v1-spark" transform="translate(838 392) scale(0.5)" fill="#FFFFFF" opacity="0.85"/>
    <g transform="translate(788 300) rotate(12) scale(0.85)" fill="#FFF6E4">
      <circle cx="0" cy="0" r="20"/>
      <rect x="16" y="-84" width="11" height="88" rx="5"/>
      <path d="M27 -84 C54 -74 56 -50 40 -36 C48 -55 40 -66 27 -70 Z"/>
    </g>
    <g transform="rotate(-3 512 540)">
      <path d="M300 480 C300 260 724 260 724 480" fill="none" stroke="#1B2C4A" stroke-width="36"/>
      <rect x="272" y="360" width="480" height="380" rx="110" fill="#FFF6E4"/>
      <rect x="232" y="468" width="78" height="144" rx="36" fill="#1B2C4A"/>
      <rect x="714" y="468" width="78" height="144" rx="36" fill="#1B2C4A"/>
      <path d="M386 516 Q424 480 462 516" fill="none" stroke="#10243E" stroke-width="22" stroke-linecap="round"/>
      <path d="M562 516 Q600 480 638 516" fill="none" stroke="#10243E" stroke-width="22" stroke-linecap="round"/>
      <circle cx="372" cy="568" r="24" fill="#FF9DA1" opacity="0.6"/>
      <circle cx="652" cy="568" r="24" fill="#FF9DA1" opacity="0.6"/>
      <rect x="466" y="548" width="92" height="84" rx="40" fill="#10243E"/>
      <circle cx="512" cy="638" r="28" fill="#FF7B87" clip-path="url(#v1-mouth)"/>
      <path d="M276 610 C302 684 382 706 450 678" fill="none" stroke="#1B2C4A" stroke-width="20" stroke-linecap="round"/>
      <circle cx="456" cy="674" r="18" fill="#FFD166"/>
    </g>
  </g>
</svg>
