<svg xmlns="http://www.w3.org/2000/svg" viewBox="0 0 1024 1024">
  <defs>
    <linearGradient id="v4-bg" x1="0" y1="0" x2="0" y2="1">
      <stop offset="0" stop-color="#16273F"/>
      <stop offset="1" stop-color="#0A0F1E"/>
    </linearGradient>
    <radialGradient id="v4-glow1">
      <stop offset="0" stop-color="#2DD4BF" stop-opacity="0.38"/>
      <stop offset="1" stop-color="#2DD4BF" stop-opacity="0"/>
    </radialGradient>
    <radialGradient id="v4-glow2">
      <stop offset="0" stop-color="#8B5CF6" stop-opacity="0.32"/>
      <stop offset="1" stop-color="#8B5CF6" stop-opacity="0"/>
    </radialGradient>
    <radialGradient id="v4-orb" cx="0.38" cy="0.32" r="0.78">
      <stop offset="0" stop-color="#FFFFFF"/>
      <stop offset="0.65" stop-color="#EAF7FF"/>
      <stop offset="1" stop-color="#BEE3F8"/>
    </radialGradient>
    <path id="v4-spark" d="M0 -34 C4 -12 12 -4 34 0 C12 4 4 12 0 34 C-4 12 -12 4 -34 0 C-12 -4 -4 -12 0 -34 Z"/>
    <filter id="v4-shadow" x="-20%" y="-20%" width="140%" height="140%">
      <feDropShadow dx="0" dy="14" stdDeviation="18" flood-color="#000000" flood-opacity="0.45"/>
    </filter>
  </defs>
  <g filter="url(#v4-shadow)">
    <rect x="100" y="100" width="824" height="824" rx="186" fill="url(#v4-bg)"/>
    <circle cx="300" cy="280" r="310" fill="url(#v4-glow1)"/>
    <circle cx="740" cy="760" r="330" fill="url(#v4-glow2)"/>
    <circle cx="512" cy="530" r="350" fill="none" stroke="#7FE7DC" stroke-width="6" opacity="0.14"/>
    <circle cx="512" cy="530" r="280" fill="none" stroke="#7FE7DC" stroke-width="8" opacity="0.26"/>
    <circle cx="512" cy="530" r="210" fill="none" stroke="#7FE7DC" stroke-width="10" opacity="0.42"/>
    <circle cx="512" cy="530" r="188" fill="#7FE7DC" opacity="0.22"/>
    <circle cx="512" cy="530" r="150" fill="url(#v4-orb)"/>
    <ellipse cx="464" cy="514" rx="17" ry="32" fill="#12263F"/>
    <ellipse cx="560" cy="514" rx="17" ry="32" fill="#12263F"/>
    <circle cx="457" cy="496" r="7" fill="#FFFFFF"/>
    <circle cx="553" cy="496" r="7" fill="#FFFFFF"/>
    <circle cx="424" cy="562" r="20" fill="#FF9DA1" opacity="0.5"/>
    <circle cx="600" cy="562" r="20" fill="#FF9DA1" opacity="0.5"/>
    <circle cx="512" cy="588" r="15" fill="#12263F"/>
    <circle cx="306" cy="368" r="12" fill="#C4B5FD"/>
    <circle cx="730" cy="656" r="9" fill="#7FE7DC"/>
    <circle cx="676" cy="326" r="6" fill="#FFFFFF" opacity="0.85"/>
    <use href="#v4-spark" transform="translate(798 244) scale(0.7)" fill="#7FE7DC" opacity="0.9"/>
    <use href="#v4-spark" transform="translate(238 720) scale(0.6)" fill="#C4B5FD" opacity="0.85"/>
  </g>
</svg>
