<svg xmlns="http://www.w3.org/2000/svg" viewBox="0 0 240 240" fill="none">
  <path d="M92 62 A 40 40 0 0 1 148 62" stroke="#0A84FF" stroke-width="9" stroke-linecap="round"/>
  <path d="M76 40 A 66 66 0 0 1 164 40" stroke="#0A84FF" stroke-width="9" stroke-linecap="round" opacity="0.62"/>
  <path d="M62 19 A 90 90 0 0 1 178 19" stroke="#0A84FF" stroke-width="9" stroke-linecap="round" opacity="0.3"/>
  <circle cx="120" cy="112" r="33" fill="#FFF6E4"/>
  <path d="M102 140 C 90 150, 80 155, 70 160" stroke="#F2F2F5" stroke-width="7" stroke-linecap="round"/>
  <path d="M120 145 L 120 170" stroke="#F2F2F5" stroke-width="7" stroke-linecap="round"/>
  <path d="M138 140 C 150 150, 160 155, 170 160" stroke="#F2F2F5" stroke-width="7" stroke-linecap="round"/>
  <path d="M97 107 Q105 97 113 107" stroke="#10243E" stroke-width="5" stroke-linecap="round"/>
  <path d="M127 107 Q135 97 143 107" stroke="#10243E" stroke-width="5" stroke-linecap="round"/>
  <circle cx="95" cy="119" r="6" fill="#FF9DA1" opacity="0.6"/>
  <circle cx="145" cy="119" r="6" fill="#FF9DA1" opacity="0.6"/>
  <path d="M108 119 C 111 134, 129 134, 132 119 Z" fill="#10243E"/>
  <g>
    <rect x="36" y="168" width="40" height="27" rx="12" fill="#D97757"/>
    <path d="M62 168 L 68 160 L 54 168 Z" fill="#D97757"/>
    <circle cx="48" cy="181.5" r="3" fill="#FFF6E4"/>
    <circle cx="57" cy="181.5" r="3" fill="#FFF6E4"/>
    <circle cx="66" cy="181.5" r="3" fill="#FFF6E4"/>
  </g>
  <g>
    <rect x="100" y="182" width="40" height="27" rx="12" fill="#0A84FF"/>
    <path d="M120 182 L 120 173 L 111 182 Z" fill="#0A84FF"/>
    <circle cx="112" cy="195.5" r="3" fill="#FFF6E4"/>
    <circle cx="121" cy="195.5" r="3" fill="#FFF6E4"/>
    <circle cx="130" cy="195.5" r="3" fill="#FFF6E4"/>
  </g>
  <g>
    <rect x="164" y="168" width="40" height="27" rx="12" fill="#10A37F"/>
    <path d="M178 168 L 172 160 L 186 168 Z" fill="#10A37F"/>
    <circle cx="176" cy="181.5" r="3" fill="#FFF6E4"/>
    <circle cx="185" cy="181.5" r="3" fill="#FFF6E4"/>
    <circle cx="194" cy="181.5" r="3" fill="#FFF6E4"/>
  </g>
</svg>
