<svg xmlns="http://www.w3.org/2000/svg" viewBox="0 0 240 240" fill="none">
  <path d="M92 62 A 40 40 0 0 1 148 62" stroke="#0A84FF" stroke-width="9" stroke-linecap="round"/>
  <path d="M76 40 A 66 66 0 0 1 164 40" stroke="#0A84FF" stroke-width="9" stroke-linecap="round" opacity="0.62"/>
  <path d="M62 19 A 90 90 0 0 1 178 19" stroke="#0A84FF" stroke-width="9" stroke-linecap="round" opacity="0.3"/>
  <circle cx="120" cy="112" r="33" fill="#FFF6E4"/>
  <path d="M102 140 C 90 150, 80 155, 70 160" stroke="#F2F2F5" stroke-width="7" stroke-linecap="round"/>
  <path d="M120 145 L 120 170" stroke="#F2F2F5" stroke-width="7" stroke-linecap="round"/>
  <path d="M138 140 C 150 150, 160 155, 170 160" stroke="#F2F2F5" stroke-width="7" stroke-linecap="round"/>
  <path d="M97 107 Q105 97 113 107" stroke="#10243E" stroke-width="5" stroke-linecap="round"/>
  <path d="M127 107 Q135 97 143 107" stroke="#10243E" stroke-width="5" stroke-linecap="round"/>
  <circle cx="95" cy="119" r="6" fill="#FF9DA1" opacity="0.6"/>
  <circle cx="145" cy="119" r="6" fill="#FF9DA1" opacity="0.6"/>
  <path d="M108 119 C 111 134, 129 134, 132 119 Z" fill="#10243E"/>
  <g>
    <rect x="36" y="166" width="40" height="30" rx="7" fill="#1B1B22" stroke="rgba(255,255,255,0.35)" stroke-width="2.5"/>
    <circle cx="45" cy="174" r="2.2" fill="#FF5F57"/>
    <circle cx="52" cy="174" r="2.2" fill="#FEBC2E"/>
    <circle cx="59" cy="174" r="2.2" fill="#28C840"/>
    <path d="M44 186 L 60 186" stroke="#D97757" stroke-width="3" stroke-linecap="round"/>
  </g>
  <g>
    <rect x="100" y="180" width="40" height="30" rx="7" fill="#1B1B22" stroke="rgba(255,255,255,0.35)" stroke-width="2.5"/>
    <circle cx="109" cy="188" r="2.2" fill="#FF5F57"/>
    <circle cx="116" cy="188" r="2.2" fill="#FEBC2E"/>
    <circle cx="123" cy="188" r="2.2" fill="#28C840"/>
    <path d="M108 200 L 128 200" stroke="#0A84FF" stroke-width="3" stroke-linecap="round"/>
  </g>
  <g>
    <rect x="164" y="166" width="40" height="30" rx="7" fill="#1B1B22" stroke="rgba(255,255,255,0.35)" stroke-width="2.5"/>
    <circle cx="173" cy="174" r="2.2" fill="#FF5F57"/>
    <circle cx="180" cy="174" r="2.2" fill="#FEBC2E"/>
    <circle cx="187" cy="174" r="2.2" fill="#28C840"/>
    <path d="M172 186 L 184 186" stroke="#10A37F" stroke-width="3" stroke-linecap="round"/>
  </g>
</svg>
