<?xml version="1.0" encoding="UTF-8"?>
<svg xmlns="http://www.w3.org/2000/svg" width="252" height="252" viewBox="0 0 252 252" role="img" aria-labelledby="title desc">
  <title id="title">Attaché robot mark</title>
  <desc id="desc">A friendly steel robot head broadcasting beneath three blue voice arcs.</desc>
  <g fill="none" stroke="#0A84FF" stroke-width="9" stroke-linecap="round">
    <path d="M99.235 71.274 A40 40 0 0 1 152.765 71.274"/>
    <path d="M81.837 51.952 A66 66 0 0 1 170.163 51.952" opacity="0.62"/>
    <path d="M65.778 34.117 A90 90 0 0 1 186.222 34.117" opacity="0.30"/>
  </g>
  <path d="M126 94 V85" fill="none" stroke="#C7D0DC" stroke-width="3" stroke-linecap="round"/>
  <circle cx="126" cy="81.5" r="3.5" fill="#FF9DA1"/>
  <rect x="94" y="94" width="64" height="60" rx="14" fill="#C7D0DC"/>
  <rect x="100" y="104" width="52" height="34" rx="8" fill="#10243E"/>
  <rect x="105" y="112.5" width="14" height="11" rx="2.5" fill="#66E3FF"/>
  <rect x="133" y="112.5" width="14" height="11" rx="2.5" fill="#66E3FF"/>
  <circle cx="98.5" cy="131" r="2" fill="#FF9DA1"/>
  <circle cx="149.5" cy="131" r="2" fill="#FF9DA1"/>
  <rect x="115.2" y="143" width="21.6" height="3.5" rx="1.75" fill="#10243E"/>
</svg>
