<svg xmlns="http://www.w3.org/2000/svg" viewBox="0 0 512 512" width="512" height="512" role="img" aria-label="Attache logo">
  <title>Attaché</title>
  <defs>
    <linearGradient id="tileBg" x1="0" y1="0" x2="1" y2="1">
      <stop offset="0" stop-color="#2E90FF"/>
      <stop offset="0.55" stop-color="#0B6BE6"/>
      <stop offset="1" stop-color="#063C9E"/>
    </linearGradient>
    <clipPath id="tileClip">
      <rect x="28" y="28" width="456" height="456" rx="112"/>
    </clipPath>
  </defs>

  <rect x="28" y="28" width="456" height="456" rx="112" fill="url(#tileBg)"/>

  <g clip-path="url(#tileClip)">
    <g fill="none" stroke="#FFFFFF" stroke-opacity="0.14" stroke-width="5">
      <circle cx="256" cy="256" r="150"/>
      <circle cx="256" cy="256" r="205"/>
    </g>

    <!-- Attaché the robot, in the app-icon design box (matches
         scripts/generate-app-icon.swift; translate/scale maps design units
         to the 512 tile). -->
    <g transform="translate(-128,-51.2) scale(3.2)">
      <g fill="none" stroke="#FFFFFF" stroke-width="7" stroke-linecap="round">
        <path d="M105.2 37.1 A 24 24 0 0 1 134.8 37.1"/>
        <path d="M99.7 30 A 33 33 0 0 1 140.3 30" stroke-opacity="0.62"/>
        <path d="M94.1 22.9 A 42 42 0 0 1 145.9 22.9" stroke-opacity="0.34"/>
      </g>
      <path d="M120 82 L120 73" fill="none" stroke="#C7D0DC" stroke-width="3" stroke-linecap="round"/>
      <circle cx="120" cy="67.5" r="3.5" fill="#FF9DA1"/>
      <rect x="88" y="82" width="64" height="60" rx="14" fill="#C7D0DC"/>
      <rect x="94" y="92" width="52" height="34" rx="8" fill="#10243E"/>
      <rect x="99" y="100.5" width="14" height="11" rx="2.5" fill="#66E3FF"/>
      <rect x="127" y="100.5" width="14" height="11" rx="2.5" fill="#66E3FF"/>
      <circle cx="94.5" cy="119" r="2" fill="#FF9DA1"/>
      <circle cx="145.5" cy="119" r="2" fill="#FF9DA1"/>
      <rect x="109.2" y="131" width="21.6" height="3.5" rx="1.75" fill="#10243E"/>
    </g>
  </g>
</svg>
