<svg xmlns="http://www.w3.org/2000/svg" viewBox="0 0 512 512" width="512" height="512" role="img" aria-label="Attache logo">
  <title>Attaché</title>
  <defs>
    <linearGradient id="tileBg" x1="0" y1="0" x2="1" y2="1">
      <stop offset="0" stop-color="#2E90FF"/>
      <stop offset="0.55" stop-color="#0B6BE6"/>
      <stop offset="1" stop-color="#063C9E"/>
    </linearGradient>
    <linearGradient id="barFill" x1="0" y1="0" x2="1" y2="0">
      <stop offset="0" stop-color="#B8D6FF"/>
      <stop offset="1" stop-color="#FFFFFF"/>
    </linearGradient>
    <clipPath id="tileClip">
      <rect x="28" y="28" width="456" height="456" rx="112"/>
    </clipPath>
  </defs>

  <rect x="28" y="28" width="456" height="456" rx="112" fill="url(#tileBg)"/>

  <g clip-path="url(#tileClip)">
    <g fill="none" stroke="#FFFFFF" stroke-opacity="0.16">
      <circle cx="256" cy="232" r="118" stroke-width="5"/>
      <circle cx="256" cy="232" r="165" stroke-width="5"/>
      <circle cx="256" cy="232" r="212" stroke-width="5"/>
    </g>

    <g fill="url(#barFill)">
      <rect x="96"  y="398" width="20" height="34"  rx="10"/>
      <rect x="126" y="368" width="20" height="64"  rx="10"/>
      <rect x="156" y="328" width="20" height="104" rx="10"/>
      <rect x="186" y="312" width="20" height="120" rx="10"/>
      <rect x="216" y="352" width="20" height="80"  rx="10"/>
      <rect x="246" y="312" width="20" height="120" rx="10"/>
      <rect x="276" y="352" width="20" height="80"  rx="10"/>
      <rect x="306" y="312" width="20" height="120" rx="10"/>
      <rect x="336" y="328" width="20" height="104" rx="10"/>
      <rect x="366" y="368" width="20" height="64"  rx="10"/>
      <rect x="396" y="398" width="20" height="34"  rx="10"/>
    </g>

    <path d="M 256 112 L 190 300 M 256 112 L 322 300 M 210 248 L 302 248"
          fill="none" stroke="#FFFFFF" stroke-width="30"
          stroke-linecap="round" stroke-linejoin="round"/>
  </g>
</svg>
